<svg id="visual" viewBox="0 0 960 120" width="960" height="120" xmlns="http://www.w3.org/2000/svg" xmlns:xlink="http://www.w3.org/1999/xlink" version="1.1"><rect x="0" y="0" width="960" height="120" fill="#023047"></rect><path d="M0 64L9.3 63.3C18.7 62.7 37.3 61.3 56.2 61.5C75 61.7 94 63.3 112.8 61.7C131.7 60 150.3 55 169.2 57.7C188 60.3 207 70.7 225.8 73.8C244.7 77 263.3 73 282.2 68.5C301 64 320 59 338.8 56.5C357.7 54 376.3 54 395.2 56.3C414 58.7 433 63.3 451.8 66.7C470.7 70 489.3 72 508.2 72.7C527 73.3 546 72.7 564.8 68C583.7 63.3 602.3 54.7 621.2 55C640 55.3 659 64.7 677.8 66.5C696.7 68.3 715.3 62.7 734.2 62C753 61.3 772 65.7 790.8 68.7C809.7 71.7 828.3 73.3 847.2 70.5C866 67.7 885 60.3 903.8 56.2C922.7 52 941.3 51 950.7 50.5L960 50L960 121L950.7 121C941.3 121 922.7 121 903.8 121C885 121 866 121 847.2 121C828.3 121 809.7 121 790.8 121C772 121 753 121 734.2 121C715.3 121 696.7 121 677.8 121C659 121 640 121 621.2 121C602.3 121 583.7 121 564.8 121C546 121 527 121 508.2 121C489.3 121 470.7 121 451.8 121C433 121 414 121 395.2 121C376.3 121 357.7 121 338.8 121C320 121 301 121 282.2 121C263.3 121 244.7 121 225.8 121C207 121 188 121 169.2 121C150.3 121 131.7 121 112.8 121C94 121 75 121 56.2 121C37.3 121 18.7 121 9.3 121L0 121Z" fill="#fb8500"></path><path d="M0 80L9.3 81.2C18.7 82.3 37.3 84.7 56.2 83.8C75 83 94 79 112.8 76C131.7 73 150.3 71 169.2 69.2C188 67.3 207 65.7 225.8 68.7C244.7 71.7 263.3 79.3 282.2 82C301 84.7 320 82.3 338.8 79.2C357.7 76 376.3 72 395.2 74.5C414 77 433 86 451.8 87.3C470.7 88.7 489.3 82.3 508.2 78.2C527 74 546 72 564.8 70.3C583.7 68.7 602.3 67.3 621.2 66.7C640 66 659 66 677.8 66.2C696.7 66.3 715.3 66.7 734.2 71.2C753 75.7 772 84.3 790.8 88.7C809.7 93 828.3 93 847.2 92.2C866 91.3 885 89.7 903.8 87.2C922.7 84.7 941.3 81.3 950.7 79.7L960 78L960 121L950.7 121C941.3 121 922.7 121 903.8 121C885 121 866 121 847.2 121C828.3 121 809.7 121 790.8 121C772 121 753 121 734.2 121C715.3 121 696.7 121 677.8 121C659 121 640 121 621.2 121C602.3 121 583.7 121 564.8 121C546 121 527 121 508.2 121C489.3 121 470.7 121 451.8 121C433 121 414 121 395.2 121C376.3 121 357.7 121 338.8 121C320 121 301 121 282.2 121C263.3 121 244.7 121 225.8 121C207 121 188 121 169.2 121C150.3 121 131.7 121 112.8 121C94 121 75 121 56.2 121C37.3 121 18.7 121 9.3 121L0 121Z" fill="#fe9e00"></path><path d="M0 102L9.3 103C18.7 104 37.3 106 56.2 107.2C75 108.3 94 108.7 112.8 106.8C131.7 105 150.3 101 169.2 99.2C188 97.3 207 97.7 225.8 99C244.7 100.3 263.3 102.7 282.2 101C301 99.3 320 93.7 338.8 93C357.7 92.3 376.3 96.7 395.2 96.5C414 96.3 433 91.7 451.8 89C470.7 86.3 489.3 85.7 508.2 85.7C527 85.7 546 86.3 564.8 89.7C583.7 93 602.3 99 621.2 103C640 107 659 109 677.8 107.8C696.7 106.7 715.3 102.3 734.2 99.2C753 96 772 94 790.8 92.3C809.7 90.7 828.3 89.3 847.2 91.5C866 93.7 885 99.3 903.8 103.2C922.7 107 941.3 109 950.7 110L960 111L960 121L950.7 121C941.3 121 922.7 121 903.8 121C885 121 866 121 847.2 121C828.3 121 809.7 121 790.8 121C772 121 753 121 734.2 121C715.3 121 696.7 121 677.8 121C659 121 640 121 621.2 121C602.3 121 583.7 121 564.8 121C546 121 527 121 508.2 121C489.3 121 470.7 121 451.8 121C433 121 414 121 395.2 121C376.3 121 357.7 121 338.8 121C320 121 301 121 282.2 121C263.3 121 244.7 121 225.8 121C207 121 188 121 169.2 121C150.3 121 131.7 121 112.8 121C94 121 75 121 56.2 121C37.3 121 18.7 121 9.3 121L0 121Z" fill="#ffb703"></path></svg>