<svg id="visual" viewBox="0 0 900 120" width="900" height="120" xmlns="http://www.w3.org/2000/svg" xmlns:xlink="http://www.w3.org/1999/xlink" version="1.1"><rect x="0" y="0" width="900" height="120" fill="#1d3557"></rect><path d="M0 5L13.7 4.2C27.3 3.3 54.7 1.7 82 13.2C109.3 24.7 136.7 49.3 163.8 52.7C191 56 218 38 245.2 32.5C272.3 27 299.7 34 327 40.7C354.3 47.3 381.7 53.7 409 55.5C436.3 57.3 463.7 54.7 491 54.5C518.3 54.3 545.7 56.7 573 59.3C600.3 62 627.7 65 654.8 55.7C682 46.3 709 24.7 736.2 22.3C763.3 20 790.7 37 818 46C845.3 55 872.7 56 886.3 56.5L900 57L900 121L886.3 121C872.7 121 845.3 121 818 121C790.7 121 763.3 121 736.2 121C709 121 682 121 654.8 121C627.7 121 600.3 121 573 121C545.7 121 518.3 121 491 121C463.7 121 436.3 121 409 121C381.7 121 354.3 121 327 121C299.7 121 272.3 121 245.2 121C218 121 191 121 163.8 121C136.7 121 109.3 121 82 121C54.7 121 27.3 121 13.7 121L0 121Z" fill="#e63946"></path><path d="M0 108L13.7 97.2C27.3 86.3 54.7 64.7 82 65.2C109.3 65.7 136.7 88.3 163.8 92.2C191 96 218 81 245.2 77C272.3 73 299.7 80 327 84.7C354.3 89.3 381.7 91.7 409 89.5C436.3 87.3 463.7 80.7 491 84.3C518.3 88 545.7 102 573 107C600.3 112 627.7 108 654.8 104.2C682 100.3 709 96.7 736.2 97C763.3 97.3 790.7 101.7 818 105.2C845.3 108.7 872.7 111.3 886.3 112.7L900 114L900 121L886.3 121C872.7 121 845.3 121 818 121C790.7 121 763.3 121 736.2 121C709 121 682 121 654.8 121C627.7 121 600.3 121 573 121C545.7 121 518.3 121 491 121C463.7 121 436.3 121 409 121C381.7 121 354.3 121 327 121C299.7 121 272.3 121 245.2 121C218 121 191 121 163.8 121C136.7 121 109.3 121 82 121C54.7 121 27.3 121 13.7 121L0 121Z" fill="#f1faee"></path></svg>