<svg id="visual" viewBox="0 0 960 120" width="960" height="120" xmlns="http://www.w3.org/2000/svg" xmlns:xlink="http://www.w3.org/1999/xlink" version="1.1"><rect x="0" y="0" width="960" height="120" fill="#fefae0"></rect><path d="M0 34L9.3 34C18.7 34 37.3 34 56.2 38.3C75 42.7 94 51.3 112.8 58C131.7 64.7 150.3 69.3 169.2 69.8C188 70.3 207 66.7 225.8 65.5C244.7 64.3 263.3 65.7 282.2 65C301 64.3 320 61.7 338.8 57.5C357.7 53.3 376.3 47.7 395.2 46.7C414 45.7 433 49.3 451.8 54.3C470.7 59.3 489.3 65.7 508.2 68.7C527 71.7 546 71.3 564.8 67.2C583.7 63 602.3 55 621.2 50.7C640 46.3 659 45.7 677.8 44C696.7 42.3 715.3 39.7 734.2 43.2C753 46.7 772 56.3 790.8 60.8C809.7 65.3 828.3 64.7 847.2 61.3C866 58 885 52 903.8 51.3C922.7 50.7 941.3 55.3 950.7 57.7L960 60L960 0L950.7 0C941.3 0 922.7 0 903.8 0C885 0 866 0 847.2 0C828.3 0 809.7 0 790.8 0C772 0 753 0 734.2 0C715.3 0 696.7 0 677.8 0C659 0 640 0 621.2 0C602.3 0 583.7 0 564.8 0C546 0 527 0 508.2 0C489.3 0 470.7 0 451.8 0C433 0 414 0 395.2 0C376.3 0 357.7 0 338.8 0C320 0 301 0 282.2 0C263.3 0 244.7 0 225.8 0C207 0 188 0 169.2 0C150.3 0 131.7 0 112.8 0C94 0 75 0 56.2 0C37.3 0 18.7 0 9.3 0L0 0Z" fill="#fb8500"></path><path d="M0 28L9.3 30.2C18.7 32.3 37.3 36.7 56.2 36.8C75 37 94 33 112.8 33.3C131.7 33.7 150.3 38.3 169.2 40C188 41.7 207 40.3 225.8 37.7C244.7 35 263.3 31 282.2 29.2C301 27.3 320 27.7 338.8 29.3C357.7 31 376.3 34 395.2 36.5C414 39 433 41 451.8 40.7C470.7 40.3 489.3 37.7 508.2 36.8C527 36 546 37 564.8 37.2C583.7 37.3 602.3 36.7 621.2 38.3C640 40 659 44 677.8 42.5C696.7 41 715.3 34 734.2 34.2C753 34.3 772 41.7 790.8 45.7C809.7 49.7 828.3 50.3 847.2 49.5C866 48.7 885 46.3 903.8 44.3C922.7 42.3 941.3 40.7 950.7 39.8L960 39L960 0L950.7 0C941.3 0 922.7 0 903.8 0C885 0 866 0 847.2 0C828.3 0 809.7 0 790.8 0C772 0 753 0 734.2 0C715.3 0 696.7 0 677.8 0C659 0 640 0 621.2 0C602.3 0 583.7 0 564.8 0C546 0 527 0 508.2 0C489.3 0 470.7 0 451.8 0C433 0 414 0 395.2 0C376.3 0 357.7 0 338.8 0C320 0 301 0 282.2 0C263.3 0 244.7 0 225.8 0C207 0 188 0 169.2 0C150.3 0 131.7 0 112.8 0C94 0 75 0 56.2 0C37.3 0 18.7 0 9.3 0L0 0Z" fill="#fe9e00"></path><path d="M0 13L9.3 16C18.7 19 37.3 25 56.2 27C75 29 94 27 112.8 27C131.7 27 150.3 29 169.2 25.7C188 22.3 207 13.7 225.8 13C244.7 12.3 263.3 19.7 282.2 24C301 28.3 320 29.7 338.8 26.7C357.7 23.7 376.3 16.3 395.2 13.5C414 10.7 433 12.3 451.8 15.8C470.7 19.3 489.3 24.7 508.2 23.5C527 22.3 546 14.7 564.8 13.3C583.7 12 602.3 17 621.2 20.8C640 24.7 659 27.3 677.8 29.2C696.7 31 715.3 32 734.2 32.5C753 33 772 33 790.8 29.2C809.7 25.3 828.3 17.7 847.2 13.8C866 10 885 10 903.8 12.5C922.7 15 941.3 20 950.7 22.5L960 25L960 0L950.7 0C941.3 0 922.7 0 903.8 0C885 0 866 0 847.2 0C828.3 0 809.7 0 790.8 0C772 0 753 0 734.2 0C715.3 0 696.7 0 677.8 0C659 0 640 0 621.2 0C602.3 0 583.7 0 564.8 0C546 0 527 0 508.2 0C489.3 0 470.7 0 451.8 0C433 0 414 0 395.2 0C376.3 0 357.7 0 338.8 0C320 0 301 0 282.2 0C263.3 0 244.7 0 225.8 0C207 0 188 0 169.2 0C150.3 0 131.7 0 112.8 0C94 0 75 0 56.2 0C37.3 0 18.7 0 9.3 0L0 0Z" fill="#ffb703"></path></svg>